{"title":"Atlantis (2013) - 01x10 - The Price of Hope HDTV 480p x264 AAC E","uid":9316432,"size":161124092,"categoryP":"video","categoryS":"tv_shows","magnet":"?xt=urn:btih:0211bf1835802a55c81d14bdc4a7fba4d9b7492c&amp;dn=Atlantis+%282013%29+-+01x10+-+The+Price+of+Hope+HDTV+480p+x264+AAC+E&amp;tr=udp%3A%2F%2Ftracker.openbittorrent.com%3A80&amp;tr=udp%3A%2F%2Fopen.demonii.com%3A1337&amp;tr=udp%3A%2F%2Ftracker.coppersurfer.tk%3A6969&amp;tr=udp%3A%2F%2Fexodus.desync.com%3A6969","seeders":1,"leechers":0,"uploader":"canc232","files":1,"time":1386478541,"description":"Atlantis (2013) - 01x10 - The Price of Hope HDTV 480p x264 AAC E-Subs [GWC]\n\n\nSCREENS :\n &lt;a href=&quot;\nhttp://s20.postimg.org/n6cyo7egt/Atlantis_2013_01x10_The_Price_of_Hope_09_0.jpg&quot; rel=&quot;nofollow&quot; target=&quot;_NEW&quot;&gt;\nhttp://s20.postimg.org/n6cyo7egt/Atlantis_2013_01x10_The_Price_of_Hope_09_0.jpg&lt;/a&gt;\n &lt;a href=&quot;\nhttp://s20.postimg.org/m2suc8ttp/Atlantis_2013_01x10_The_Price_of_Hope_09_0.jpg&quot; rel=&quot;nofollow&quot; target=&quot;_NEW&quot;&gt;\nhttp://s20.postimg.org/m2suc8ttp/Atlantis_2013_01x10_The_Price_of_Hope_09_0.jpg&lt;/a&gt;\n &lt;a href=&quot;\nhttp://s20.postimg.org/5dregbx8d/Atlantis_2013_01x10_The_Price_of_Hope_09_0.jpg&quot; rel=&quot;nofollow&quot; target=&quot;_NEW&quot;&gt;\nhttp://s20.postimg.org/5dregbx8d/Atlantis_2013_01x10_The_Price_of_Hope_09_0.jpg&lt;/a&gt;\n\n\nMEDIA INFO :\n\nGeneral \nFormat : MPEG-4 \nFormat profile : Base Media \nFile size : 154 MiB \nDuration : 42mn 49s \nOverall bit rate mode : Variable \nOverall bit rate : 502 Kbps\n\nVideo \nFormat : AVC \nFormat profile : &lt;a class=&quot;__cf_email__&quot; href=&quot;/cdn-cgi/l/email-protection&quot; data-cfemail=&quot;6c24050b042c205f425c&quot;&gt;[email&amp;#160;protected]&lt;/a&gt;&lt;script data-cfhash='f9e31' type=&quot;text/javascript&quot;&gt;\n/* &lt;![CDATA[ */!function(){try{var t=&quot;currentScript&quot;in document?document.currentScript:function(){for(var t=document.getElementsByTagName(&quot;script&quot;),e=t.length;e--;)if(t[e].getAttribute(&quot;data-cfhash&quot;))return t[e]}();if(t&amp;&amp;t.previousSibling){var e,r,n,i,c=t.previousSibling,a=c.getAttribute(&quot;data-cfemail&quot;);if(a){for(e=&quot;&quot;,r=parseInt(a.substr(0,2),16),n=2;a.length-n;n+=2)i=parseInt(a.substr(n,2),16)^r,e+=String.fromCharCode(i);e=document.createTextNode(e),c.parentNode.replaceChild(e,c)}t.parentNode.removeChild(t);}}catch(u){}}()/* ]]&gt; */&lt;/script&gt; \nFormat settings, CABAC : Yes \nFormat settings, ReFrames : 4 frames\nDuration : 42mn 49s \nBit rate : 438 Kbps \nWidth : 720 pixels \nHeight : 404 pixels \nDisplay aspect ratio : 16:9 \nFrame rate : 25.000 fps\nStream size : 134 MiB (87%) \nTitle : Atlantis (2013) - 01x10 - The Price of Hope HDTV 480p x264 AAC E-Subs [GWC] \nWriting library : x264 core\n\nAudio  \nFormat : AAC \nFormat profile : HE-AAC / LC \nDuration : 42mn 49s \nBit rate mode : Variable  \nChannel(s) : 2 channels \nSampling rate : 48.0 KHz / 24.0 KHz \nStream size : 18.4 MiB \nLanguage : English \n\nText \nFormat : Timed Text \nDuration : 42mn 29s \nBit rate mode : Variable \nStream size : 19.1 KiB (0%) \nTitle : English Subtitle by Stubbie \nLanguage : English","torrent":{"xt":"urn:btih:0211bf1835802a55c81d14bdc4a7fba4d9b7492c","amp;dn":"Atlantis+%282013%29+-+01x10+-+The+Price+of+Hope+HDTV+480p+x264+AAC+E","amp;tr":["udp%3A%2F%2Ftracker.openbittorrent.com%3A80","udp%3A%2F%2Fopen.demonii.com%3A1337","udp%3A%2F%2Ftracker.coppersurfer.tk%3A6969","udp%3A%2F%2Fexodus.desync.com%3A6969"],"infoHash":"0211bf1835802a55c81d14bdc4a7fba4d9b7492c","infoHashBuffer":{"type":"Buffer","data":[2,17,191,24,53,128,42,85,200,29,20,189,196,167,251,164,217,183,73,44]},"announce":[],"urlList":[]}}